<svg width="70" height="54" fill="none" xmlns="http://www.w3.org/2000/svg"><path d="M3.49817 53.8865H59.4689c1.9318 0 3.4981-1.5663 3.4981-3.4982v-4.6642c0-1.9319-1.5663-3.4982-3.4981-3.4982h-1.1661V13.1468l6.6234-6.27436c1.5373.75782 3.398.29777 4.404-1.0909 1.0067-1.38811.8655-3.29946-.3336-4.52473C67.7975.0315355 65.8901-.15123 64.4798.824089c-1.4097.975891-1.9108 2.825751-1.1865 4.379541l-4.9905 4.73084V7.24423c0-1.93185-1.5663-3.49817-3.4982-3.49817H8.16239c-1.93185 0-3.49817 1.56632-3.49817 3.49817V42.2259H3.49817C1.56632 42.2259 0 43.7922 0 45.7241v4.6642c0 1.9319 1.56632 3.4982 3.49817 3.4982zM66.4652 2.58001c.6439 0 1.166.5221 1.166 1.16605s-.5221 1.16606-1.166 1.16606c-.644 0-1.1661-.52211-1.1661-1.16606 0-.64395.5221-1.16605 1.1661-1.16605zM6.99634 7.24423c0-.64395.5221-1.16606 1.16605-1.16606H54.8046c.644 0 1.1661.52211 1.1661 1.16606v4.89707l-2.3321 2.216V9.57634c0-.64395-.5221-1.16605-1.1661-1.16605h-41.978c-.64395 0-1.16605.5221-1.16605 1.16605V38.7277c0 .644.5221 1.1661 1.16605 1.1661h41.978c.644 0 1.1661-.5221 1.1661-1.1661V17.5651l2.3321-2.2097v26.8705H6.99634V7.24423zM17.4908 22.403c-1.5777-.0046-2.9629 1.0465-3.3825 2.5672-.4197 1.5208.23 3.1338 1.5868 3.9389 1.3562.8051 3.0842.6029 4.2178-.4942l4.0533 2.0337c.4709.2358 1.0419.1253 1.3921-.2681l8.6162-9.6934 8.4698 6.3466c.4544.3405 1.0886.3041 1.5009-.0859l7.3613-6.973v17.7869H11.6606V10.7424h39.6459v5.8195l-8.2501 7.8128-8.541-6.4031c-.4851-.3632-1.1678-.2949-1.5709.1577l-8.7346 9.8278-3.2653-1.6329c.0239-.1401.0387-.2813.0444-.4231 0-1.9318-1.5663-3.4981-3.4982-3.4981zm1.1661 3.4981c0 .644-.5221 1.1661-1.1661 1.1661-.6439 0-1.166-.5221-1.166-1.1661 0-.6439.5221-1.166 1.166-1.166.644 0 1.1661.5221 1.1661 1.166zm6.9963 18.6569h11.6606v1.1661c0 .6439-.5221 1.166-1.1661 1.166h-9.3284c-.644 0-1.1661-.5221-1.1661-1.166V44.558zM2.33211 45.7241c0-.644.52211-1.1661 1.16606-1.1661H23.3211v1.1661c0 1.9318 1.5663 3.4982 3.4982 3.4982h9.3284c1.9319 0 3.4982-1.5664 3.4982-3.4982V44.558h19.823c.6439 0 1.166.5221 1.166 1.1661v4.6642c0 .644-.5221 1.1661-1.166 1.1661H3.49817c-.64395 0-1.16606-.5221-1.16606-1.1661v-4.6642z" fill="#212121"/></svg>